<svg width="1080" height="1080" viewBox="0 0 1080 1080" fill="none" xmlns="http://www.w3.org/2000/svg">
<rect width="1080" height="1080" fill="#005D4C"/>
<path d="M298.316 828L411.21 373.938C418.268 345.666 434.585 320.569 457.562 302.646C480.538 284.724 508.851 275.006 537.991 275.042H542.507C571.632 275.012 599.93 284.733 622.887 302.657C645.844 320.581 662.139 345.675 669.175 373.938L782.069 828H872.385L753.62 352.826C741.876 305.731 714.713 263.919 676.455 234.049C638.197 204.18 591.044 187.969 542.507 188H537.991C489.434 187.944 442.256 204.143 403.975 234.015C365.694 263.886 338.514 305.712 326.765 352.826L208 828H298.316Z" fill="white"/>
</svg>
