<svg width="115" height="16" viewBox="0 0 115 16" fill="none" xmlns="http://www.w3.org/2000/svg">
<g clip-path="url(#clip0_411_2447)">
<path d="M28.9256 15.9972H18.9023V13.8296H28.9256C29.5088 13.8289 30.0679 13.5994 30.4803 13.1914C30.8926 12.7835 31.1246 12.2304 31.1254 11.6536V11.2641C31.1254 10.6869 30.8936 10.1335 30.4811 9.72537C30.0685 9.31728 29.509 9.08802 28.9256 9.08802H23.302C22.1351 9.08653 21.0165 8.62714 20.1916 7.81068C19.3668 6.99422 18.9031 5.88739 18.9023 4.73311V4.35209C18.9031 3.19807 19.3669 2.09154 20.1918 1.27552C21.0167 0.45951 22.1353 0.000747663 23.302 0L33.3252 0V2.17605H23.302C22.7207 2.17977 22.1646 2.41058 21.7547 2.81819C21.3447 3.22579 21.1143 3.77714 21.1136 4.35209V4.73311C21.1143 5.31 21.3463 5.86306 21.7587 6.27098C22.1711 6.67891 22.7302 6.90841 23.3134 6.90916H28.937C30.1019 6.91363 31.2176 7.37434 32.04 8.19048C32.8623 9.00662 33.3245 10.1117 33.3252 11.2641V11.6451C33.3237 12.7989 32.8597 13.905 32.0349 14.7208C31.2102 15.5367 30.092 15.9957 28.9256 15.9972Z" fill="#005D4C"/>
<path d="M110.61 15.9972H100.404V0H110.61C111.685 0.00149328 112.716 0.424813 113.477 1.17715C114.237 1.92949 114.665 2.94944 114.667 4.01341V4.43112C114.665 5.16798 114.46 5.89032 114.072 6.5194C113.684 7.14847 113.129 7.66013 112.467 7.99859C113.13 8.33749 113.685 8.85003 114.073 9.48019C114.461 10.1104 114.667 10.8339 114.667 11.5717V11.9894C114.664 13.0524 114.235 14.0709 113.475 14.822C112.714 15.5731 111.684 15.9957 110.61 15.9972ZM101.305 15.1053H110.61C111.446 15.1046 112.249 14.7754 112.84 14.1902C113.432 13.605 113.765 12.8114 113.765 11.9838V11.5717C113.765 10.7441 113.432 9.95051 112.84 9.36527C112.249 8.78003 111.446 8.45092 110.61 8.45017H101.305V15.1053ZM101.305 7.55266H110.61C111.446 7.55191 112.249 7.22279 112.84 6.63755C113.432 6.05231 113.765 5.25877 113.765 4.43112V4.01341C113.765 3.18575 113.432 2.39221 112.84 1.80697C112.249 1.22173 111.446 0.892615 110.61 0.891868H101.305V7.55266Z" fill="#005D4C"/>
<path d="M45.4598 15.9972H39.8361C38.6697 15.9957 37.5516 15.5367 36.7268 14.7208C35.902 13.905 35.438 12.7989 35.4365 11.6451V4.35209C35.438 3.1983 35.902 2.0922 36.7268 1.27635C37.5516 0.460496 38.6697 0.00149358 39.8361 0L49.8622 0V2.17605H39.8361C39.2529 2.17679 38.6939 2.40629 38.2815 2.81422C37.8691 3.22215 37.6371 3.7752 37.6363 4.35209V11.6451C37.6356 11.9315 37.6919 12.2152 37.8021 12.48C37.9123 12.7448 38.0741 12.9855 38.2784 13.1884C38.4828 13.3913 38.7255 13.5524 38.9928 13.6624C39.2601 13.7724 39.5466 13.8292 39.8361 13.8296H45.4598C46.0425 13.8259 46.5999 13.5939 47.0101 13.1845C47.4202 12.775 47.6497 12.2215 47.6482 11.6451V9.08802H40.675V6.90916H49.8622V11.6451C49.8607 12.7994 49.3963 13.9059 48.5709 14.7218C47.7456 15.5378 46.6266 15.9964 45.4598 15.9972Z" fill="#005D4C"/>
<path d="M61.9939 15.9972H56.3703C55.2039 15.9957 54.0857 15.5367 53.261 14.7208C52.4362 13.905 51.9722 12.7989 51.9707 11.6451V4.35209C51.9722 3.1983 52.4362 2.0922 53.261 1.27635C54.0857 0.460496 55.2039 0.00149358 56.3703 0L61.9939 0C63.1608 0.000746621 64.2797 0.459419 65.1051 1.27535C65.9305 2.09128 66.3949 3.19781 66.3964 4.35209V11.6451C66.3949 12.7994 65.9305 13.9059 65.1051 14.7218C64.2797 15.5378 63.1608 15.9964 61.9939 15.9972ZM56.3703 2.16758C55.7871 2.16832 55.228 2.39783 54.8157 2.80575C54.4033 3.21368 54.1713 3.76673 54.1705 4.34362V11.6451C54.1698 11.9315 54.2261 12.2152 54.3363 12.48C54.4464 12.7448 54.6083 12.9855 54.8126 13.1884C55.0169 13.3913 55.2597 13.5524 55.527 13.6624C55.7942 13.7724 56.0808 13.8292 56.3703 13.8296H61.9939C62.2837 13.8296 62.5706 13.7731 62.8382 13.6632C63.1058 13.5534 63.3489 13.3924 63.5535 13.1894C63.7581 12.9865 63.9202 12.7456 64.0306 12.4806C64.1409 12.2156 64.1974 11.9317 64.1966 11.6451V4.35209C64.1959 3.77471 63.9635 3.22123 63.5505 2.81322C63.1375 2.40522 62.5776 2.17604 61.9939 2.17605L56.3703 2.16758Z" fill="#005D4C"/>
<path d="M79.8576 15.9972H69.4121V0H70.3137V15.1053H79.8576V15.9972Z" fill="#005D4C"/>
<path d="M2.28255 16L5.13573 4.64844C5.31411 3.94164 5.72649 3.31422 6.30717 2.86616C6.88785 2.41809 7.60341 2.17515 8.33986 2.17605H8.45399C9.19007 2.17529 9.90523 2.41833 10.4854 2.86643C11.0656 3.31452 11.4775 3.94187 11.6553 4.64844L14.5084 16H16.791L13.7894 4.12066C13.4926 2.94328 12.8061 1.89798 11.8392 1.15123C10.8723 0.404488 9.68067 -0.000768095 8.45399 3.62896e-06H8.33986C7.11269 -0.00139854 5.92035 0.403568 4.95288 1.15036C3.9854 1.89716 3.29847 2.94281 3.00155 4.12066L0 16H2.28255Z" fill="#005D4C"/>
<path d="M83.8012 15.9972L87.6188 0.891868H92.6404L96.458 15.9972H97.3881L93.3451 0H86.9141L82.8711 15.9972H83.8012Z" fill="#005D4C"/>
</g>
<defs>
<clipPath id="clip0_411_2447">
<rect width="114.667" height="16" fill="white"/>
</clipPath>
</defs>
</svg>
