<svg width="230" height="32" viewBox="0 0 230 32" fill="none" xmlns="http://www.w3.org/2000/svg">
<g clip-path="url(#clip0_413_2981)">
<path d="M57.8512 31.9944H37.8047V27.6592H57.8512C59.0176 27.6577 60.1357 27.1987 60.9605 26.3829C61.7853 25.567 62.2493 24.4609 62.2508 23.3071V22.5281C62.2508 21.3739 61.7873 20.2669 60.9622 19.4507C60.1371 18.6346 59.018 18.176 57.8512 18.176H46.6039C44.2702 18.1731 42.0329 17.2543 40.3832 15.6214C38.7336 13.9884 37.8062 11.7748 37.8047 9.46622V8.70418C37.8062 6.39615 38.7337 4.18307 40.3836 2.55105C42.0334 0.91902 44.2707 0.00149533 46.6039 0L66.6504 0V4.35209H46.6039C45.4415 4.35954 44.3292 4.82117 43.5093 5.63637C42.6895 6.45158 42.2286 7.55429 42.2271 8.70418V9.46622C42.2286 10.62 42.6927 11.7261 43.5174 12.542C44.3422 13.3578 45.4604 13.8168 46.6267 13.8183H57.874C60.2038 13.8273 62.4352 14.7487 64.0799 16.381C65.7247 18.0132 66.6489 20.2235 66.6504 22.5281V23.2902C66.6474 25.5978 65.7193 27.81 64.0698 29.4417C62.4203 31.0734 60.1839 31.9914 57.8512 31.9944Z" fill="white"/>
<path d="M221.219 31.9944H200.808V0H221.219C223.37 0.00298657 225.433 0.849625 226.954 2.3543C228.475 3.85897 229.331 5.89889 229.334 8.02681V8.86223C229.331 10.336 228.919 11.7806 228.143 13.0388C227.368 14.2969 226.257 15.3203 224.934 15.9972C226.259 16.675 227.37 17.7001 228.146 18.9604C228.922 20.2207 229.333 21.6678 229.334 23.1434V23.9788C229.328 26.1048 228.47 28.1418 226.95 29.6441C225.429 31.1463 223.368 31.9914 221.219 31.9944ZM202.611 30.2106H221.219C222.893 30.2091 224.497 29.5509 225.68 28.3804C226.864 27.2099 227.529 25.6229 227.531 23.9675V23.1434C227.529 21.4881 226.864 19.901 225.68 18.7305C224.497 17.5601 222.893 16.9018 221.219 16.9003H202.611V30.2106ZM202.611 15.1053H221.219C222.893 15.1038 224.497 14.4456 225.68 13.2751C226.864 12.1046 227.529 10.5175 227.531 8.86223V8.02681C227.529 6.37151 226.864 4.78442 225.68 3.61394C224.497 2.44346 222.893 1.78523 221.219 1.78374H202.611V15.1053Z" fill="white"/>
<path d="M90.9195 31.9944H79.6723C77.3395 31.9914 75.1031 31.0734 73.4536 29.4417C71.8041 27.81 70.8761 25.5978 70.873 23.2902V8.70418C70.8761 6.39661 71.8041 4.1844 73.4536 2.5527C75.1031 0.920991 77.3395 0.00298716 79.6723 0L99.7244 0V4.35209H79.6723C78.5059 4.35358 77.3877 4.81259 76.5629 5.62844C75.7382 6.44429 75.2742 7.55039 75.2727 8.70418V23.2902C75.2712 23.8629 75.3838 24.4303 75.6042 24.96C75.8245 25.4896 76.1483 25.9711 76.5569 26.3769C76.9655 26.7826 77.451 27.1048 77.9855 27.3248C78.5201 27.5448 79.0933 27.6585 79.6723 27.6592H90.9195C92.0849 27.6517 93.1998 27.1878 94.0202 26.3689C94.8405 25.55 95.2994 24.443 95.2963 23.2902V18.176H81.3499V13.8183H99.7244V23.2902C99.7214 25.5987 98.7926 27.8118 97.1419 29.4437C95.4911 31.0755 93.2533 31.9929 90.9195 31.9944Z" fill="white"/>
<path d="M123.988 31.9944H112.741C110.408 31.9914 108.171 31.0734 106.522 29.4417C104.872 27.81 103.944 25.5978 103.941 23.2902V8.70418C103.944 6.39661 104.872 4.1844 106.522 2.5527C108.171 0.920991 110.408 0.00298716 112.741 0L123.988 0C126.322 0.00149324 128.559 0.918838 130.21 2.5507C131.861 4.18257 132.79 6.39563 132.793 8.70418V23.2902C132.79 25.5987 131.861 27.8118 130.21 29.4437C128.559 31.0755 126.322 31.9929 123.988 31.9944ZM112.741 4.33516C111.574 4.33665 110.456 4.79565 109.631 5.6115C108.807 6.42736 108.343 7.53346 108.341 8.68725V23.2902C108.34 23.8629 108.452 24.4303 108.673 24.96C108.893 25.4896 109.217 25.9711 109.625 26.3769C110.034 26.7826 110.519 27.1048 111.054 27.3248C111.588 27.5448 112.162 27.6585 112.741 27.6592H123.988C124.567 27.6592 125.141 27.5461 125.676 27.3264C126.212 27.1067 126.698 26.7847 127.107 26.3789C127.516 25.973 127.84 25.4913 128.061 24.9613C128.282 24.4313 128.395 23.8634 128.393 23.2902V8.70418C128.392 7.54942 127.927 6.44246 127.101 5.62645C126.275 4.81043 125.155 4.35209 123.988 4.35209L112.741 4.33516Z" fill="white"/>
<path d="M159.715 31.9944H138.824V0H140.627V30.2106H159.715V31.9944Z" fill="white"/>
<path d="M4.5651 32L10.2715 9.29688C10.6282 7.88328 11.453 6.62845 12.6143 5.73231C13.7757 4.83618 15.2068 4.3503 16.6797 4.3521H16.908C18.3801 4.35058 19.8105 4.83666 20.9708 5.73285C22.1312 6.62904 22.9549 7.88373 23.3105 9.29688L29.0169 32H33.582L27.5789 8.24132C26.9853 5.88655 25.6123 3.79596 23.6785 2.30247C21.7447 0.808976 19.3613 -0.00153619 16.908 7.25792e-06H16.6797C14.2254 -0.00279708 11.8407 0.807137 9.90575 2.30073C7.9708 3.79432 6.59694 5.88561 6.0031 8.24132L0 32H4.5651Z" fill="white"/>
<path d="M167.602 31.9944L175.238 1.78374H185.281L192.916 31.9944H194.776L186.69 0H173.828L165.742 31.9944H167.602Z" fill="white"/>
</g>
<defs>
<clipPath id="clip0_413_2981">
<rect width="229.333" height="32" fill="white"/>
</clipPath>
</defs>
</svg>
