<svg width="1286" height="884" viewBox="0 0 1286 884" fill="none" xmlns="http://www.w3.org/2000/svg">
<path d="M959.402 161.844L1346.92 -1388.21C1370.94 -1484.71 1426.58 -1570.39 1504.96 -1631.58C1583.35 -1692.78 1679.97 -1725.96 1779.41 -1725.84L1794.82 -1725.84C1894.26 -1725.96 1990.88 -1692.77 2069.26 -1631.58C2147.65 -1570.39 2203.28 -1484.71 2227.3 -1388.21L2614.81 161.844" stroke="#005D4C" stroke-width="0.75" stroke-miterlimit="10"/>
<path d="M2648.87 161.844L2259.34 -1396.22C2233.57 -1499.88 2173.82 -1591.93 2089.63 -1657.67C2005.44 -1723.41 1901.65 -1759.05 1794.84 -1758.92L1779.43 -1758.92C1672.6 -1759.06 1568.81 -1723.41 1484.62 -1657.67C1400.42 -1591.93 1340.67 -1499.88 1314.9 -1396.22L925.371 161.844" stroke="#005D4C" stroke-width="1.5" stroke-miterlimit="10"/>
<path d="M2682.9 161.844L2291.39 -1404.29C2263.84 -1515.11 2199.97 -1613.51 2109.97 -1683.79C2019.97 -1754.07 1909.03 -1792.19 1794.84 -1792.06L1779.43 -1792.06C1665.23 -1792.19 1554.29 -1754.08 1464.28 -1683.79C1374.28 -1613.51 1310.41 -1515.11 1282.86 -1404.29L891.342 161.844" stroke="#005D4C" stroke-width="2.25" stroke-miterlimit="10"/>
<path d="M2716.95 161.844L2323.43 -1412.25C2294.08 -1530.2 2226.08 -1634.92 2130.28 -1709.72C2034.47 -1784.53 1916.38 -1825.09 1794.83 -1824.96L1779.42 -1824.96C1657.88 -1825.1 1539.78 -1784.53 1443.98 -1709.73C1348.17 -1634.93 1280.18 -1530.2 1250.83 -1412.25L857.294 161.844" stroke="#005D4C" stroke-width="3" stroke-miterlimit="10"/>
<path d="M2750.98 161.844L2355.45 -1420.25C2324.33 -1545.35 2252.21 -1656.43 2150.6 -1735.76C2049 -1815.1 1923.75 -1858.13 1794.83 -1857.99L1779.42 -1857.99C1650.51 -1858.13 1525.26 -1815.1 1423.65 -1735.77C1322.04 -1656.43 1249.92 -1545.35 1218.79 -1420.25L823.263 161.844" stroke="#005D4C" stroke-width="3.75" stroke-miterlimit="10"/>
<path d="M2785.03 161.844L2387.49 -1428.26C2354.58 -1560.5 2278.34 -1677.92 2170.93 -1761.78C2063.51 -1845.65 1931.11 -1891.14 1794.83 -1891L1779.42 -1891C1643.14 -1891.15 1510.73 -1845.67 1403.3 -1761.8C1295.88 -1677.93 1219.63 -1560.51 1186.72 -1428.26L789.199 161.844" stroke="#005D4C" stroke-width="4.5" stroke-miterlimit="10"/>
<path d="M2819.06 161.843L2419.58 -1436.27C2384.9 -1575.66 2304.54 -1699.43 2191.32 -1787.84C2078.1 -1876.24 1938.53 -1924.18 1794.89 -1924.02L1779.47 -1924.02C1635.81 -1924.2 1496.23 -1876.25 1383 -1787.84C1269.76 -1699.43 1189.4 -1575.65 1154.73 -1436.23L755.253 161.877" stroke="#005D4C" stroke-width="5.25" stroke-miterlimit="10"/>
<path d="M2853.14 161.844L2451.59 -1444.27C2415.14 -1590.82 2330.66 -1720.94 2211.63 -1813.88C2092.6 -1906.82 1945.88 -1957.22 1794.87 -1957.05L1779.46 -1957.05C1628.44 -1957.22 1481.72 -1906.82 1362.69 -1813.88C1243.65 -1720.94 1159.17 -1590.82 1122.72 -1444.27L721.189 161.844" stroke="#005D4C" stroke-width="6" stroke-miterlimit="10"/>
<path d="M2887.13 161.844L2483.6 -1452.28C2445.36 -1605.97 2356.76 -1742.44 2231.93 -1839.91C2107.09 -1937.38 1953.21 -1990.24 1794.83 -1990.06L1779.42 -1990.06C1621.04 -1990.24 1467.16 -1937.38 1342.32 -1839.91C1217.48 -1742.44 1128.88 -1605.98 1090.64 -1452.28L687.108 161.844" stroke="#005D4C" stroke-width="6.75" stroke-miterlimit="10"/>
<path d="M2921.16 161.844L2515.64 -1460.3C2475.62 -1621.14 2382.9 -1763.95 2252.26 -1865.96C2121.62 -1967.96 1960.58 -2023.28 1794.83 -2023.09L1779.42 -2023.09C1613.68 -2023.28 1452.64 -1967.97 1321.99 -1865.96C1191.35 -1763.96 1098.63 -1621.15 1058.62 -1460.3L653.078 161.844" stroke="#005D4C" stroke-width="7.5" stroke-miterlimit="10"/>
<path d="M653.078 161.844L265.555 1711.88C241.538 1808.38 185.901 1894.06 107.516 1955.25C29.1314 2016.45 -67.4866 2049.63 -166.929 2049.51L-182.339 2049.51C-281.781 2049.63 -378.399 2016.45 -456.784 1955.25C-535.169 1894.06 -590.806 1808.38 -614.823 1711.88L-1002.35 161.844" stroke="#005D4C" stroke-width="0.75" stroke-miterlimit="10"/>
<path d="M-1036.29 161.844L-646.848 1719.91C-621.063 1823.56 -561.309 1915.6 -477.116 1981.34C-392.923 2047.08 -289.14 2082.73 -182.323 2082.61L-166.913 2082.61C-60.096 2082.73 43.6859 2047.08 127.878 1981.34C212.071 1915.6 271.825 1823.56 297.612 1719.91L687.057 161.844" stroke="#005D4C" stroke-width="1.5" stroke-miterlimit="10"/>
<path d="M-1070.42 161.844L-678.889 1727.98C-651.337 1838.79 -587.468 1937.19 -497.469 2007.47C-407.471 2077.76 -296.528 2115.88 -182.339 2115.75L-166.929 2115.75C-52.7387 2115.88 58.2041 2077.76 148.202 2007.47C238.2 1937.19 302.069 1838.79 329.622 1727.98L721.155 161.844" stroke="#005D4C" stroke-width="2.25" stroke-miterlimit="10"/>
<path d="M-1104.45 161.845L-710.93 1735.92C-681.587 1853.87 -613.59 1958.6 -517.786 2033.4C-421.981 2108.2 -303.887 2148.77 -182.339 2148.63L-166.929 2148.63C-45.3817 2148.77 72.7115 2108.2 168.516 2033.4C264.32 1958.6 332.317 1853.87 361.663 1735.92L755.186 161.845" stroke="#005D4C" stroke-width="3" stroke-miterlimit="10"/>
<path d="M-1138.5 161.844L-742.972 1743.92C-711.851 1869.03 -639.734 1980.11 -538.121 2059.44C-436.509 2138.78 -311.255 2181.81 -182.339 2181.66L-166.929 2181.66C-38.0129 2181.81 87.241 2138.78 188.853 2059.44C290.465 1980.11 362.583 1869.03 393.704 1743.92L789.233 161.844" stroke="#005D4C" stroke-width="3.75" stroke-miterlimit="10"/>
<path d="M-1172.53 161.844L-774.997 1751.93C-742.088 1884.18 -665.849 2001.6 -558.435 2085.47C-451.021 2169.34 -318.618 2214.83 -182.339 2214.68L-166.929 2214.68C-30.65 2214.83 101.753 2169.34 209.167 2085.47C316.581 2001.6 392.82 1884.18 425.729 1751.93L823.262 161.844" stroke="#005D4C" stroke-width="4.5" stroke-miterlimit="10"/>
<path d="M-1206.58 161.844L-807.105 1759.94C-772.407 1899.33 -692.031 2023.09 -578.795 2111.48C-465.56 2199.87 -325.987 2247.79 -182.339 2247.61L-166.929 2247.61C-23.2807 2247.77 116.285 2199.83 229.508 2111.43C342.732 2023.02 423.091 1899.25 457.77 1759.85L857.243 161.76" stroke="#005D4C" stroke-width="5.25" stroke-miterlimit="10"/>
<path d="M-1240.61 161.844L-839.062 1767.91C-802.6 1914.45 -718.118 2044.57 -599.087 2137.51C-480.057 2230.44 -333.336 2280.84 -182.322 2280.67L-166.912 2280.67C-15.9016 2280.84 130.817 2230.43 249.843 2137.5C368.87 2044.57 453.35 1914.45 489.812 1767.91L891.341 161.793" stroke="#005D4C" stroke-width="6" stroke-miterlimit="10"/>
<path d="M-1274.65 161.844L-871.104 1775.97C-832.87 1929.66 -744.27 2066.13 -619.434 2163.6C-494.599 2261.07 -340.719 2313.93 -182.338 2313.75L-166.928 2313.75C-8.54784 2313.93 145.331 2261.07 270.167 2163.6C395.002 2066.13 483.603 1929.66 521.837 1775.97L925.371 161.844" stroke="#005D4C" stroke-width="6.75" stroke-miterlimit="10"/>
<path d="M-1308.74 161.844L-903.196 1783.97C-863.179 1944.82 -770.456 2087.63 -639.814 2189.63C-509.173 2291.64 -348.137 2346.96 -182.389 2346.78L-166.979 2346.78C-1.23194 2346.96 159.804 2291.64 290.445 2189.63C421.087 2087.63 513.81 1944.82 553.827 1783.97L959.401 161.844" stroke="#005D4C" stroke-width="7.5" stroke-miterlimit="10"/>
<path d="M2992.42 161.844L2602.97 -1396.22C2577.2 -1499.88 2517.45 -1591.93 2433.25 -1657.67C2349.06 -1723.41 2245.27 -1759.06 2138.45 -1758.92L2123.04 -1758.92C2016.22 -1759.05 1912.43 -1723.41 1828.24 -1657.67C1744.05 -1591.93 1684.3 -1499.88 1658.53 -1396.22L1269.08 161.844" stroke="#005D4C" stroke-width="1.5" stroke-miterlimit="10"/>
<path d="M3026.45 161.844L2634.93 -1404.29C2607.38 -1515.11 2543.51 -1613.51 2453.51 -1683.79C2363.5 -1754.08 2252.56 -1792.19 2138.37 -1792.06L2122.95 -1792.06C2008.76 -1792.19 1897.82 -1754.07 1807.82 -1683.79C1717.83 -1613.5 1653.96 -1515.11 1626.4 -1404.29L1234.89 161.844" stroke="#005D4C" stroke-width="2.25" stroke-miterlimit="10"/>
<path d="M3060.49 161.844L2666.96 -1412.25C2637.61 -1530.2 2569.62 -1634.93 2473.81 -1709.73C2378.01 -1784.53 2259.91 -1825.1 2138.37 -1824.96L2122.95 -1824.96C2001.41 -1825.09 1883.32 -1784.53 1787.51 -1709.72C1691.71 -1634.92 1623.71 -1530.2 1594.36 -1412.25L1200.84 161.844" stroke="#005D4C" stroke-width="3" stroke-miterlimit="10"/>
<path d="M3094.53 161.844L2699 -1420.25C2667.87 -1545.35 2595.75 -1656.43 2494.14 -1735.77C2392.53 -1815.1 2267.28 -1858.13 2138.37 -1857.99L2122.95 -1857.99C1994.04 -1858.13 1868.79 -1815.1 1767.19 -1735.76C1665.58 -1656.43 1593.46 -1545.35 1562.34 -1420.25L1166.81 161.844" stroke="#005D4C" stroke-width="3.75" stroke-miterlimit="10"/>
<path d="M3128.57 161.844L2731.12 -1428.26C2698.21 -1560.5 2621.97 -1677.92 2514.55 -1761.79C2407.13 -1845.66 2274.73 -1891.14 2138.45 -1891L2123.04 -1891C1986.76 -1891.14 1854.36 -1845.65 1746.95 -1761.78C1639.53 -1677.92 1563.29 -1560.5 1530.38 -1428.26L1132.84 161.844" stroke="#005D4C" stroke-width="4.5" stroke-miterlimit="10"/>
<path d="M3162.6 161.843L2763.13 -1436.27C2728.45 -1575.67 2648.08 -1699.44 2534.86 -1787.84C2421.63 -1876.24 2282.06 -1924.19 2138.41 -1924.02L2123 -1924.02C1979.34 -1924.19 1839.76 -1876.25 1726.53 -1787.84C1613.3 -1699.43 1532.93 -1575.64 1498.25 -1436.23L1098.78 161.877" stroke="#005D4C" stroke-width="5.25" stroke-miterlimit="10"/>
<path d="M3196.63 161.844L2795.11 -1444.27C2758.65 -1590.82 2674.17 -1720.94 2555.14 -1813.88C2436.11 -1906.82 2289.38 -1957.22 2138.37 -1957.05L2122.95 -1957.05C1971.94 -1957.22 1825.22 -1906.82 1706.19 -1813.88C1587.16 -1720.94 1502.68 -1590.82 1466.23 -1444.27L1064.7 161.844" stroke="#005D4C" stroke-width="6" stroke-miterlimit="10"/>
<path d="M3230.68 161.844L2827.15 -1452.28C2788.91 -1605.98 2700.3 -1742.44 2575.47 -1839.91C2450.63 -1937.38 2296.75 -1990.24 2138.37 -1990.06L2122.95 -1990.06C1964.57 -1990.24 1810.7 -1937.38 1685.86 -1839.91C1561.03 -1742.44 1472.42 -1605.97 1434.19 -1452.28L1030.65 161.844" stroke="#005D4C" stroke-width="6.75" stroke-miterlimit="10"/>
<path d="M3264.71 161.844L2859.19 -1460.3C2819.17 -1621.15 2726.44 -1763.96 2595.8 -1865.96C2465.15 -1967.96 2304.11 -2023.28 2138.37 -2023.09L2122.95 -2023.09C1957.21 -2023.28 1796.17 -1967.96 1665.53 -1865.96C1534.89 -1763.95 1442.17 -1621.14 1402.15 -1460.3L996.624 161.844" stroke="#005D4C" stroke-width="7.5" stroke-miterlimit="10"/>
<path d="M996.623 161.844L609.101 1711.88C585.085 1808.38 529.447 1894.06 451.063 1955.25C372.678 2016.45 276.06 2049.63 176.618 2049.51L161.207 2049.51C61.7651 2049.63 -34.8528 2016.45 -113.238 1955.25C-191.623 1894.06 -247.26 1808.38 -271.276 1711.88L-658.799 161.844" stroke="#005D4C" stroke-width="0.75" stroke-miterlimit="10"/>
<path d="M-692.829 161.844L-303.385 1719.91C-277.6 1823.56 -217.846 1915.6 -133.652 1981.34C-49.4592 2047.08 54.323 2082.73 161.14 2082.61L176.551 2082.61C283.367 2082.73 387.148 2047.08 471.34 1981.34C555.533 1915.6 615.288 1823.56 641.076 1719.91L1030.52 161.844" stroke="#005D4C" stroke-width="1.5" stroke-miterlimit="10"/>
<path d="M-726.876 161.845L-335.359 1727.98C-307.804 1838.8 -243.931 1937.19 -153.93 2007.48C-63.9286 2077.76 47.0159 2115.88 161.208 2115.75L176.618 2115.75C290.808 2115.88 401.751 2077.76 491.749 2007.47C581.747 1937.19 645.616 1838.8 673.168 1727.98L1064.69 161.845" stroke="#005D4C" stroke-width="2.25" stroke-miterlimit="10"/>
<path d="M-760.907 161.844L-367.384 1735.92C-338.043 1853.87 -270.047 1958.6 -174.242 2033.41C-78.4363 2108.21 39.659 2148.77 161.208 2148.63L176.618 2148.63C298.165 2148.77 416.258 2108.2 512.062 2033.4C607.866 1958.6 675.863 1853.87 705.209 1735.92L1098.73 161.844" stroke="#005D4C" stroke-width="3" stroke-miterlimit="10"/>
<path d="M-794.953 161.844L-399.475 1743.92C-368.354 1869.03 -296.237 1980.11 -194.625 2059.44C-93.0126 2138.78 32.2412 2181.81 161.157 2181.66L176.568 2181.66C305.484 2181.81 430.738 2138.78 532.35 2059.44C633.962 1980.11 706.079 1869.03 737.2 1743.92L1132.71 161.844" stroke="#005D4C" stroke-width="3.75" stroke-miterlimit="10"/>
<path d="M-829.034 161.844L-431.517 1751.93C-398.608 1884.18 -322.366 2001.6 -214.948 2085.47C-107.531 2169.34 24.8755 2214.83 161.157 2214.68L176.567 2214.68C312.846 2214.83 445.249 2169.34 552.663 2085.47C660.077 2001.6 736.316 1884.18 769.225 1751.93L1166.76 161.844" stroke="#005D4C" stroke-width="4.5" stroke-miterlimit="10"/>
<path d="M-863.03 161.844L-463.557 1759.94C-428.86 1899.33 -348.484 2023.09 -235.248 2111.48C-122.012 2199.87 17.5603 2247.79 161.209 2247.61L176.619 2247.61C320.267 2247.77 459.832 2199.83 573.056 2111.43C686.279 2023.02 766.639 1899.25 801.318 1759.85L1200.79 161.76" stroke="#005D4C" stroke-width="5.25" stroke-miterlimit="10"/>
<path d="M-897.062 161.844L-495.533 1767.91C-459.073 1914.46 -374.591 2044.57 -255.56 2137.51C-136.53 2230.44 10.1941 2280.84 161.208 2280.67L176.618 2280.67C327.632 2280.84 474.354 2230.44 593.384 2137.51C712.414 2044.57 796.896 1914.45 833.359 1767.91L1234.89 161.793" stroke="#005D4C" stroke-width="6" stroke-miterlimit="10"/>
<path d="M-931.11 161.844L-527.575 1775.97C-489.335 1929.66 -400.73 2066.13 -275.893 2163.6C-151.055 2261.07 2.82509 2313.93 161.207 2313.75L176.617 2313.75C334.998 2313.93 488.877 2261.07 613.712 2163.6C738.547 2066.13 827.148 1929.66 865.382 1775.97L1268.92 161.844" stroke="#005D4C" stroke-width="6.75" stroke-miterlimit="10"/>
<path d="M-965.139 161.844L-559.598 1783.97C-519.586 1944.82 -426.865 2087.63 -296.222 2189.64C-165.579 2291.65 -4.54032 2346.97 161.209 2346.78L176.619 2346.78C342.366 2346.96 503.402 2291.64 634.043 2189.63C764.685 2087.63 857.408 1944.82 897.425 1783.97L1302.96 161.844" stroke="#005D4C" stroke-width="7.5" stroke-miterlimit="10"/>
<path d="M1338.82 161.844L951.312 1711.88C927.296 1808.38 871.658 1894.06 793.273 1955.25C714.889 2016.45 618.271 2049.63 518.828 2049.51L503.418 2049.51C403.975 2049.63 307.355 2016.45 228.97 1955.26C150.584 1894.06 94.9483 1808.38 70.9343 1711.88L-316.589 161.844" stroke="#005D4C" stroke-width="0.75" stroke-miterlimit="10"/>
<path d="M-350.586 161.844L38.8584 1719.91C64.6298 1823.57 124.381 1915.62 208.578 1981.36C292.774 2047.1 396.562 2082.74 503.383 2082.61L518.794 2082.61C625.612 2082.74 729.399 2047.09 813.591 1981.35C897.784 1915.61 957.532 1823.57 983.302 1719.91L1372.75 161.844" stroke="#005D4C" stroke-width="1.5" stroke-miterlimit="10"/>
<path d="M-384.616 161.844L6.90024 1727.98C34.4558 1838.8 98.3283 1937.19 188.329 2007.48C278.33 2077.76 389.275 2115.88 503.467 2115.75L518.878 2115.75C633.068 2115.88 744.009 2077.76 834.008 2007.47C924.006 1937.19 987.875 1838.79 1015.43 1727.98L1406.94 161.844" stroke="#005D4C" stroke-width="2.25" stroke-miterlimit="10"/>
<path d="M-418.663 161.844L-25.0736 1735.92C4.26688 1853.87 72.2632 1958.6 168.069 2033.41C263.874 2108.21 381.969 2148.77 503.518 2148.63L518.928 2148.63C640.475 2148.77 758.568 2108.2 854.372 2033.4C950.176 1958.6 1018.17 1853.87 1047.52 1735.92L1441.04 161.844" stroke="#005D4C" stroke-width="3" stroke-miterlimit="10"/>
<path d="M-452.694 161.844L-57.1656 1743.92C-26.0447 1869.03 46.0742 1980.11 147.686 2059.44C249.299 2138.78 374.551 2181.81 503.467 2181.66L518.879 2181.66C647.793 2181.8 773.044 2138.78 874.653 2059.44C976.262 1980.1 1048.38 1869.03 1079.49 1743.92L1475.02 161.844" stroke="#005D4C" stroke-width="3.75" stroke-miterlimit="10"/>
<path d="M-486.725 161.844L-89.2071 1751.93C-56.298 1884.18 19.9439 2001.6 127.361 2085.47C234.779 2169.34 367.185 2214.83 503.467 2214.68L518.879 2214.68C655.152 2214.82 787.546 2169.32 894.953 2085.46C1002.36 2001.59 1078.59 1884.17 1111.5 1751.93L1509.04 161.844" stroke="#005D4C" stroke-width="4.5" stroke-miterlimit="10"/>
<path d="M-520.771 161.844L-121.298 1759.94C-86.601 1899.33 -6.22477 2023.09 107.011 2111.48C220.246 2199.87 359.819 2247.79 503.467 2247.61L518.879 2247.61C662.527 2247.77 802.093 2199.83 915.316 2111.43C1028.54 2023.02 1108.9 1899.25 1143.58 1759.85L1543.05 161.76" stroke="#005D4C" stroke-width="5.25" stroke-miterlimit="10"/>
<path d="M-554.802 161.844L-153.273 1767.91C-116.813 1914.46 -32.3302 2044.57 86.7004 2137.51C205.731 2230.44 352.453 2280.84 503.467 2280.67L518.879 2280.67C669.891 2280.84 816.611 2230.44 935.639 2137.51C1054.67 2044.57 1139.14 1914.45 1175.6 1767.91L1577.15 161.793" stroke="#005D4C" stroke-width="6" stroke-miterlimit="10"/>
<path d="M-588.849 161.844L-185.315 1775.97C-147.077 1929.66 -58.4727 2066.13 66.3654 2163.6C191.204 2261.07 345.084 2313.93 503.467 2313.75L518.879 2313.75C677.258 2313.93 831.136 2261.07 955.97 2163.6C1080.81 2066.12 1169.41 1929.66 1207.64 1775.97L1611.26 161.844" stroke="#005D4C" stroke-width="6.75" stroke-miterlimit="10"/>
<path d="M-622.88 161.844L-217.289 1783.97C-177.278 1944.82 -84.5553 2087.63 46.0875 2189.64C176.73 2291.65 337.768 2346.97 503.517 2346.78L518.927 2346.78C684.675 2346.96 845.71 2291.64 976.352 2189.63C1106.99 2087.63 1199.72 1944.82 1239.73 1783.97L1645.27 161.844" stroke="#005D4C" stroke-width="7.5" stroke-miterlimit="10"/>
</svg>
