<svg width="1286" height="884" viewBox="0 0 1286 884" fill="none" xmlns="http://www.w3.org/2000/svg">
<path d="M1304.25 673.844L916.732 -876.212C892.716 -972.71 837.079 -1058.39 758.694 -1119.58C680.309 -1180.77 583.691 -1213.96 484.249 -1213.84L468.837 -1213.84C369.395 -1213.96 272.779 -1180.77 194.395 -1119.58C116.011 -1058.38 60.3723 -972.709 36.353 -876.212L-351.152 673.844" stroke="#B4D2FF" stroke-width="0.75" stroke-miterlimit="10"/>
<path d="M-385.216 673.844L4.31195 -884.218C30.0827 -987.881 89.8319 -1079.93 174.025 -1145.67C258.217 -1211.41 362.002 -1247.05 468.821 -1246.92L484.231 -1246.92C591.052 -1247.06 694.842 -1211.41 779.038 -1145.67C863.235 -1079.93 922.985 -987.884 948.756 -884.218L1338.29 673.844" stroke="#B4D2FF" stroke-width="1.5" stroke-miterlimit="10"/>
<path d="M-419.247 673.844L-27.7294 -892.291C-0.17988 -1003.11 63.6895 -1101.51 153.688 -1171.79C243.687 -1242.07 354.63 -1280.19 468.821 -1280.06L484.231 -1280.06C598.423 -1280.19 709.37 -1242.08 799.371 -1171.79C889.373 -1101.51 953.246 -1003.11 980.799 -892.291L1372.31 673.844" stroke="#B4D2FF" stroke-width="2.25" stroke-miterlimit="10"/>
<path d="M-453.292 673.844L-59.77 -900.247C-30.4215 -1018.2 37.5768 -1122.92 133.38 -1197.72C229.184 -1272.53 347.275 -1313.09 468.821 -1312.96L484.232 -1312.96C605.779 -1313.1 723.874 -1272.53 819.679 -1197.73C915.484 -1122.93 983.48 -1018.2 1012.82 -900.247L1406.36 673.844" stroke="#B4D2FF" stroke-width="3" stroke-miterlimit="10"/>
<path d="M-487.324 673.844L-91.7958 -908.253C-60.6729 -1033.35 11.4431 -1144.43 113.051 -1223.76C214.66 -1303.1 339.908 -1346.13 468.821 -1345.99L484.231 -1345.99C613.145 -1346.13 738.397 -1303.1 840.008 -1223.77C941.619 -1144.43 1013.74 -1033.35 1044.86 -908.253L1440.39 673.844" stroke="#B4D2FF" stroke-width="3.75" stroke-miterlimit="10"/>
<path d="M-521.371 673.844L-123.837 -916.259C-90.9255 -1048.5 -14.6841 -1165.92 92.7296 -1249.78C200.143 -1333.65 332.544 -1379.14 468.82 -1379L484.231 -1379C620.516 -1379.15 752.929 -1333.67 860.352 -1249.8C967.776 -1165.93 1044.02 -1048.51 1076.94 -916.259L1474.46 673.844" stroke="#B4D2FF" stroke-width="4.5" stroke-miterlimit="10"/>
<path d="M-555.401 673.844L-155.928 -924.266C-121.247 -1063.66 -40.8858 -1187.43 72.3371 -1275.84C185.56 -1364.24 325.124 -1412.18 468.771 -1412.02L484.183 -1412.02C627.844 -1412.2 767.425 -1364.25 880.659 -1275.84C993.893 -1187.43 1074.26 -1063.65 1108.93 -924.232L1508.4 673.877" stroke="#B4D2FF" stroke-width="5.25" stroke-miterlimit="10"/>
<path d="M-589.482 673.844L-187.936 -932.272C-151.483 -1078.82 -67.0055 -1208.94 52.0226 -1301.88C171.051 -1394.82 317.773 -1445.22 468.788 -1445.05L484.198 -1445.05C635.214 -1445.22 781.939 -1394.82 900.97 -1301.88C1020 -1208.94 1104.48 -1078.82 1140.94 -932.271L1542.47 673.844" stroke="#B4D2FF" stroke-width="6" stroke-miterlimit="10"/>
<path d="M-623.478 673.844L-219.944 -940.278C-181.708 -1093.97 -93.1056 -1230.44 31.7291 -1327.91C156.564 -1425.38 310.441 -1478.24 468.821 -1478.06L484.231 -1478.06C642.614 -1478.24 796.496 -1425.38 921.334 -1327.91C1046.17 -1230.44 1134.78 -1093.98 1173.01 -940.278L1576.55 673.844" stroke="#B4D2FF" stroke-width="6.75" stroke-miterlimit="10"/>
<path d="M-657.51 673.844L-251.986 -948.3C-211.968 -1109.14 -119.244 -1251.95 11.3975 -1353.96C142.039 -1455.96 303.075 -1511.28 468.821 -1511.09L484.231 -1511.09C649.978 -1511.28 811.017 -1455.97 941.661 -1353.96C1072.3 -1251.96 1165.03 -1109.15 1205.04 -948.3L1610.58 673.844" stroke="#B4D2FF" stroke-width="7.5" stroke-miterlimit="10"/>
<path d="M960.691 673.844L573.186 -876.212C549.167 -972.709 493.529 -1058.38 415.144 -1119.58C336.76 -1180.77 240.144 -1213.96 140.703 -1213.84L125.291 -1213.84C25.8484 -1213.96 -70.7695 -1180.77 -149.154 -1119.58C-227.539 -1058.39 -283.176 -972.71 -307.193 -876.212L-694.782 673.844" stroke="#B4D2FF" stroke-width="0.75" stroke-miterlimit="10"/>
<path d="M-728.762 673.844L-339.318 -884.218C-313.546 -987.884 -253.795 -1079.93 -169.599 -1145.67C-85.4025 -1211.41 18.3861 -1247.06 125.207 -1246.92L140.617 -1246.92C247.436 -1247.05 351.222 -1211.41 435.415 -1145.67C519.608 -1079.93 579.355 -987.881 605.126 -884.218L994.57 673.844" stroke="#B4D2FF" stroke-width="1.5" stroke-miterlimit="10"/>
<path d="M-762.794 673.844L-371.276 -892.291C-343.723 -1003.11 -279.852 -1101.51 -189.85 -1171.79C-99.8489 -1242.08 11.0975 -1280.19 125.29 -1280.06L140.702 -1280.06C254.892 -1280.19 365.833 -1242.07 455.831 -1171.79C545.829 -1101.5 609.7 -1003.11 637.252 -892.291L1028.77 673.844" stroke="#B4D2FF" stroke-width="2.25" stroke-miterlimit="10"/>
<path d="M-796.839 673.844L-403.301 -900.247C-373.957 -1018.2 -305.96 -1122.93 -210.155 -1197.73C-114.35 -1272.53 3.74308 -1313.1 125.291 -1312.96L140.703 -1312.96C262.249 -1313.09 380.34 -1272.53 476.144 -1197.72C571.947 -1122.92 639.945 -1018.2 669.294 -900.247L1062.82 673.844" stroke="#B4D2FF" stroke-width="3" stroke-miterlimit="10"/>
<path d="M-830.87 673.844L-435.342 -908.253C-404.215 -1033.35 -332.096 -1144.43 -230.485 -1223.77C-128.874 -1303.1 -3.62369 -1346.13 125.291 -1345.99L140.703 -1345.99C269.615 -1346.13 394.862 -1303.1 496.47 -1223.76C598.079 -1144.43 670.195 -1033.35 701.317 -908.253L1096.85 673.844" stroke="#B4D2FF" stroke-width="3.75" stroke-miterlimit="10"/>
<path d="M-864.917 673.844L-467.467 -916.259C-434.554 -1048.5 -358.31 -1165.92 -250.893 -1249.79C-143.476 -1333.66 -11.072 -1379.14 125.207 -1379L140.618 -1379C276.894 -1379.14 409.296 -1333.65 516.71 -1249.78C624.124 -1165.92 700.364 -1048.5 733.275 -916.259L1130.81 673.844" stroke="#B4D2FF" stroke-width="4.5" stroke-miterlimit="10"/>
<path d="M-898.948 673.844L-499.475 -924.266C-464.791 -1063.66 -384.426 -1187.44 -271.2 -1275.84C-157.975 -1364.24 -18.4078 -1412.19 125.242 -1412.02L140.652 -1412.02C284.312 -1412.19 423.891 -1364.25 537.125 -1275.84C650.358 -1187.43 730.724 -1063.64 765.401 -924.232L1164.87 673.877" stroke="#B4D2FF" stroke-width="5.25" stroke-miterlimit="10"/>
<path d="M-932.978 673.844L-531.45 -932.272C-494.993 -1078.82 -410.512 -1208.94 -291.481 -1301.88C-172.45 -1394.82 -25.7258 -1445.22 125.291 -1445.05L140.702 -1445.05C291.717 -1445.22 438.438 -1394.82 557.466 -1301.88C676.494 -1208.94 760.972 -1078.82 797.425 -932.271L1198.95 673.844" stroke="#B4D2FF" stroke-width="6" stroke-miterlimit="10"/>
<path d="M-967.025 673.844L-563.491 -940.278C-525.254 -1093.98 -436.649 -1230.44 -311.811 -1327.91C-186.973 -1425.38 -33.0923 -1478.24 125.29 -1478.06L140.702 -1478.06C299.082 -1478.24 452.959 -1425.38 577.794 -1327.91C702.628 -1230.44 791.231 -1093.97 829.467 -940.278L1233 673.844" stroke="#B4D2FF" stroke-width="6.75" stroke-miterlimit="10"/>
<path d="M-1001.06 673.844L-595.532 -948.301C-555.514 -1109.15 -462.788 -1251.96 -332.142 -1353.96C-201.497 -1455.96 -40.4583 -1511.28 125.291 -1511.09L140.702 -1511.09C306.448 -1511.28 467.484 -1455.96 598.125 -1353.96C728.767 -1251.95 821.491 -1109.14 861.509 -948.3L1267.03 673.844" stroke="#B4D2FF" stroke-width="7.5" stroke-miterlimit="10"/>
<path d="M1267.03 673.844L1654.55 2223.88C1678.57 2320.38 1734.21 2406.06 1812.59 2467.25C1890.98 2528.45 1987.6 2561.63 2087.04 2561.51L2102.45 2561.51C2201.89 2561.63 2298.51 2528.45 2376.89 2467.25C2455.28 2406.06 2510.92 2320.38 2534.93 2223.88L2922.45 673.844" stroke="#B4D2FF" stroke-width="0.75" stroke-miterlimit="10"/>
<path d="M2956.48 673.844L2567.04 2231.91C2541.26 2335.56 2481.5 2427.6 2397.31 2493.34C2313.11 2559.08 2209.33 2594.73 2102.51 2594.61L2087.1 2594.61C1980.29 2594.73 1876.51 2559.08 1792.32 2493.34C1708.12 2427.6 1648.37 2335.56 1622.58 2231.91L1233.14 673.844" stroke="#B4D2FF" stroke-width="1.5" stroke-miterlimit="10"/>
<path d="M2990.53 673.845L2599.01 2239.98C2571.46 2350.8 2507.59 2449.19 2417.58 2519.48C2327.58 2589.76 2216.64 2627.88 2102.45 2627.75L2087.04 2627.75C1972.85 2627.88 1861.9 2589.76 1771.91 2519.47C1681.91 2449.19 1618.04 2350.8 1590.49 2239.98L1198.97 673.845" stroke="#B4D2FF" stroke-width="2.25" stroke-miterlimit="10"/>
<path d="M3024.56 673.845L2631.04 2247.92C2601.7 2365.87 2533.7 2470.6 2437.9 2545.41C2342.09 2620.21 2224 2660.77 2102.45 2660.63L2087.04 2660.63C1965.49 2660.77 1847.4 2620.2 1751.59 2545.4C1655.79 2470.6 1587.79 2365.87 1558.45 2247.92L1164.92 673.845" stroke="#B4D2FF" stroke-width="3" stroke-miterlimit="10"/>
<path d="M3058.61 673.844L2663.13 2255.92C2632.01 2381.03 2559.89 2492.11 2458.28 2571.44C2356.67 2650.78 2231.42 2693.81 2102.5 2693.66L2087.09 2693.66C1958.17 2693.81 1832.92 2650.78 1731.31 2571.44C1629.69 2492.11 1557.58 2381.03 1526.46 2255.92L1130.94 673.844" stroke="#B4D2FF" stroke-width="3.75" stroke-miterlimit="10"/>
<path d="M3092.69 673.844L2695.17 2263.93C2662.26 2396.18 2586.02 2513.6 2478.6 2597.47C2371.19 2681.34 2238.78 2726.83 2102.5 2726.68L2087.09 2726.68C1950.81 2726.83 1818.41 2681.34 1710.99 2597.47C1603.58 2513.6 1527.34 2396.18 1494.43 2263.93L1096.9 673.844" stroke="#B4D2FF" stroke-width="4.5" stroke-miterlimit="10"/>
<path d="M3126.69 673.844L2727.21 2271.94C2692.52 2411.33 2612.14 2535.09 2498.9 2623.48C2385.67 2711.87 2246.1 2759.79 2102.45 2759.61L2087.04 2759.61C1943.39 2759.77 1803.82 2711.83 1690.6 2623.43C1577.38 2535.02 1497.02 2411.25 1462.34 2271.85L1062.87 673.76" stroke="#B4D2FF" stroke-width="5.25" stroke-miterlimit="10"/>
<path d="M3160.72 673.844L2759.19 2279.91C2722.73 2426.46 2638.25 2556.57 2519.22 2649.51C2400.19 2742.44 2253.46 2792.85 2102.45 2792.67L2087.04 2792.67C1936.02 2792.84 1789.3 2742.44 1670.27 2649.51C1551.24 2556.57 1466.76 2426.45 1430.3 2279.91L1028.77 673.793" stroke="#B4D2FF" stroke-width="6" stroke-miterlimit="10"/>
<path d="M3194.76 673.844L2791.23 2287.97C2752.99 2441.66 2664.39 2578.13 2539.55 2675.6C2414.71 2773.07 2260.83 2825.93 2102.45 2825.75L2087.04 2825.75C1928.66 2825.93 1774.78 2773.07 1649.94 2675.6C1525.11 2578.13 1436.51 2441.66 1398.27 2287.97L994.739 673.844" stroke="#B4D2FF" stroke-width="6.75" stroke-miterlimit="10"/>
<path d="M3228.8 673.844L2823.25 2295.97C2783.24 2456.82 2690.52 2599.64 2559.88 2701.64C2429.24 2803.65 2268.2 2858.97 2102.45 2858.78L2087.04 2858.78C1921.29 2858.96 1760.25 2803.64 1629.61 2701.63C1498.97 2599.63 1406.25 2456.82 1366.23 2295.97L960.691 673.844" stroke="#B4D2FF" stroke-width="7.5" stroke-miterlimit="10"/>
<path d="M618.431 673.844L230.926 -876.212C206.906 -972.709 151.268 -1058.38 72.8835 -1119.58C-5.50071 -1180.77 -102.117 -1213.96 -201.558 -1213.84L-216.968 -1213.84C-316.41 -1213.96 -413.026 -1180.77 -491.41 -1119.58C-569.795 -1058.38 -625.433 -972.709 -649.452 -876.212L-1036.98 673.844" stroke="#B4D2FF" stroke-width="0.75" stroke-miterlimit="10"/>
<path d="M-1071.01 673.844L-681.561 -884.218C-655.79 -987.884 -596.04 -1079.93 -511.843 -1145.67C-427.647 -1211.41 -323.857 -1247.06 -217.036 -1246.92L-201.626 -1246.92C-94.8074 -1247.05 8.97759 -1211.41 93.1703 -1145.67C177.363 -1079.93 237.112 -987.881 262.883 -884.218L652.327 673.844" stroke="#B4D2FF" stroke-width="1.5" stroke-miterlimit="10"/>
<path d="M-1105.05 673.844L-713.535 -892.291C-685.982 -1003.11 -622.111 -1101.51 -532.109 -1171.79C-442.108 -1242.08 -331.161 -1280.19 -216.969 -1280.06L-201.558 -1280.06C-87.368 -1280.19 23.5769 -1242.07 113.576 -1171.79C203.574 -1101.51 267.442 -1003.11 294.992 -892.291L686.509 673.844" stroke="#B4D2FF" stroke-width="2.25" stroke-miterlimit="10"/>
<path d="M-1139.08 673.844L-745.56 -900.247C-716.216 -1018.2 -648.22 -1122.93 -552.416 -1197.73C-456.611 -1272.53 -338.516 -1313.1 -216.968 -1312.96L-201.558 -1312.96C-80.0117 -1313.09 38.0795 -1272.53 133.883 -1197.72C229.687 -1122.92 297.685 -1018.2 327.033 -900.247L720.557 673.844" stroke="#B4D2FF" stroke-width="3" stroke-miterlimit="10"/>
<path d="M-1173.13 673.844L-777.601 -908.253C-746.475 -1033.35 -674.355 -1144.43 -572.744 -1223.77C-471.133 -1303.1 -345.883 -1346.13 -216.968 -1345.99L-201.558 -1345.99C-72.6446 -1346.13 52.6057 -1303.1 154.214 -1223.77C255.823 -1144.43 327.938 -1033.35 359.058 -908.253L754.586 673.844" stroke="#B4D2FF" stroke-width="3.75" stroke-miterlimit="10"/>
<path d="M-1207.16 673.844L-809.642 -916.259C-776.73 -1048.5 -700.486 -1165.92 -593.069 -1249.79C-485.652 -1333.66 -353.248 -1379.14 -216.969 -1379L-201.558 -1379C-65.2818 -1379.14 67.1189 -1333.65 174.532 -1249.78C281.946 -1165.92 358.187 -1048.5 391.099 -916.259L788.633 673.844" stroke="#B4D2FF" stroke-width="4.5" stroke-miterlimit="10"/>
<path d="M-1241.21 673.844L-841.734 -924.266C-807.056 -1063.66 -726.696 -1187.44 -613.473 -1275.84C-500.249 -1364.24 -360.683 -1412.19 -217.036 -1412.02L-201.625 -1412.02C-57.9615 -1412.2 81.6229 -1364.26 194.861 -1275.85C308.098 -1187.44 388.465 -1063.65 423.14 -924.232L822.613 673.877" stroke="#B4D2FF" stroke-width="5.25" stroke-miterlimit="10"/>
<path d="M-1275.24 673.844L-873.709 -932.272C-837.25 -1078.82 -752.769 -1208.94 -633.739 -1301.88C-514.709 -1394.82 -367.984 -1445.22 -216.969 -1445.05L-201.559 -1445.05C-50.5444 -1445.22 96.1784 -1394.82 215.206 -1301.88C334.235 -1208.94 418.712 -1078.82 455.165 -932.272L856.711 673.844" stroke="#B4D2FF" stroke-width="6" stroke-miterlimit="10"/>
<path d="M-1309.29 673.844L-905.75 -940.278C-867.51 -1093.97 -778.906 -1230.44 -654.069 -1327.91C-529.231 -1425.38 -375.351 -1478.24 -216.969 -1478.06L-201.559 -1478.06C-43.1782 -1478.24 110.701 -1425.38 235.536 -1327.91C360.372 -1230.44 448.972 -1093.97 487.206 -940.278L890.74 673.844" stroke="#B4D2FF" stroke-width="6.75" stroke-miterlimit="10"/>
<path d="M-1343.3 673.844L-937.758 -948.301C-897.746 -1109.15 -805.023 -1251.96 -674.38 -1353.96C-543.737 -1455.97 -382.699 -1511.28 -216.952 -1511.09L-201.542 -1511.09C-35.7957 -1511.28 125.24 -1455.96 255.882 -1353.96C386.523 -1251.95 479.247 -1109.14 519.265 -948.3L924.839 673.844" stroke="#B4D2FF" stroke-width="7.5" stroke-miterlimit="10"/>
<path d="M924.839 673.844L1312.34 2223.88C1336.36 2320.38 1392 2406.06 1470.38 2467.25C1548.77 2528.45 1645.39 2561.63 1744.83 2561.51L1760.24 2561.51C1859.68 2561.63 1956.3 2528.45 2034.69 2467.26C2113.07 2406.06 2168.71 2320.38 2192.72 2223.88L2580.25 673.844" stroke="#B4D2FF" stroke-width="0.75" stroke-miterlimit="10"/>
<path d="M2614.24 673.844L2224.8 2231.91C2199.03 2335.57 2139.27 2427.62 2055.08 2493.36C1970.88 2559.1 1867.09 2594.74 1760.27 2594.61L1744.86 2594.61C1638.04 2594.74 1534.26 2559.09 1450.06 2493.35C1365.87 2427.61 1306.12 2335.57 1280.35 2231.91L890.909 673.844" stroke="#B4D2FF" stroke-width="1.5" stroke-miterlimit="10"/>
<path d="M2648.27 673.845L2256.76 2239.98C2229.2 2350.8 2165.33 2449.19 2075.33 2519.48C1985.33 2589.76 1874.38 2627.88 1760.19 2627.75L1744.78 2627.75C1630.59 2627.88 1519.65 2589.76 1429.65 2519.47C1339.65 2449.19 1275.78 2350.8 1248.23 2239.98L856.712 673.845" stroke="#B4D2FF" stroke-width="2.25" stroke-miterlimit="10"/>
<path d="M2682.32 673.845L2288.73 2247.92C2259.39 2365.87 2191.39 2470.6 2095.59 2545.41C1999.78 2620.21 1881.69 2660.77 1760.14 2660.63L1744.73 2660.63C1623.18 2660.77 1505.09 2620.2 1409.28 2545.4C1313.48 2470.6 1245.48 2365.87 1216.14 2247.92L822.613 673.844" stroke="#B4D2FF" stroke-width="3" stroke-miterlimit="10"/>
<path d="M2716.35 673.844L2320.82 2255.92C2289.7 2381.03 2217.58 2492.11 2115.97 2571.44C2014.36 2650.78 1889.1 2693.81 1760.19 2693.66L1744.78 2693.66C1615.86 2693.81 1490.61 2650.78 1389 2571.44C1287.39 2492.1 1215.28 2381.03 1184.16 2255.92L788.633 673.844" stroke="#B4D2FF" stroke-width="3.75" stroke-miterlimit="10"/>
<path d="M2750.38 673.844L2352.86 2263.93C2319.95 2396.18 2243.71 2513.6 2136.29 2597.47C2028.88 2681.34 1896.47 2726.83 1760.19 2726.68L1744.78 2726.68C1608.5 2726.82 1476.11 2681.32 1368.7 2597.46C1261.3 2513.59 1185.06 2396.17 1152.15 2263.93L754.62 673.844" stroke="#B4D2FF" stroke-width="4.5" stroke-miterlimit="10"/>
<path d="M2784.43 673.844L2384.95 2271.94C2350.26 2411.33 2269.88 2535.09 2156.65 2623.48C2043.41 2711.87 1903.84 2759.79 1760.19 2759.61L1744.78 2759.61C1601.13 2759.77 1461.56 2711.83 1348.34 2623.43C1235.12 2535.02 1154.76 2411.25 1120.08 2271.85L720.605 673.76" stroke="#B4D2FF" stroke-width="5.25" stroke-miterlimit="10"/>
<path d="M2818.46 673.844L2416.93 2279.91C2380.47 2426.46 2295.99 2556.57 2176.95 2649.51C2057.92 2742.44 1911.2 2792.85 1760.19 2792.67L1744.78 2792.67C1593.76 2792.84 1447.04 2742.44 1328.02 2649.51C1208.99 2556.57 1124.51 2426.45 1088.05 2279.91L686.508 673.793" stroke="#B4D2FF" stroke-width="6" stroke-miterlimit="10"/>
<path d="M2852.51 673.844L2448.97 2287.97C2410.73 2441.66 2322.13 2578.13 2197.29 2675.6C2072.45 2773.07 1918.57 2825.93 1760.19 2825.75L1744.78 2825.75C1586.4 2825.93 1432.52 2773.07 1307.69 2675.6C1182.85 2578.13 1094.25 2441.66 1056.01 2287.97L652.395 673.844" stroke="#B4D2FF" stroke-width="6.75" stroke-miterlimit="10"/>
<path d="M2886.54 673.844L2480.94 2295.97C2440.93 2456.82 2348.21 2599.64 2217.57 2701.64C2086.93 2803.65 1925.89 2858.97 1760.14 2858.78L1744.73 2858.78C1578.98 2858.96 1417.94 2803.64 1287.3 2701.63C1156.66 2599.63 1063.94 2456.82 1023.92 2295.97L618.382 673.844" stroke="#B4D2FF" stroke-width="7.5" stroke-miterlimit="10"/>
</svg>
