<svg width="320" height="575" viewBox="0 0 320 475" fill="none" xmlns="http://www.w3.org/2000/svg">
<path d="M224.422 -177.298L-550.606 16.4625C-598.855 28.4708 -641.694 56.2894 -672.291 95.4819C-702.887 134.674 -719.479 182.983 -719.421 232.704L-719.421 240.41C-719.478 290.131 -702.885 338.439 -672.289 377.631C-641.692 416.823 -598.854 444.643 -550.606 456.652L224.422 650.405" stroke="#B4D2FF" stroke-width="0.375" stroke-miterlimit="10"/>
<path d="M224.422 667.437L-554.609 472.673C-606.44 459.787 -652.463 429.913 -685.333 387.816C-718.203 345.72 -736.026 293.827 -735.96 240.418L-735.96 232.713C-736.028 179.303 -718.206 127.408 -685.335 85.3095C-652.465 43.2114 -606.442 13.3364 -554.609 0.450692L224.422 -194.314" stroke="#B4D2FF" stroke-width="0.75" stroke-miterlimit="10"/>
<path d="M224.422 684.452L-558.645 488.693C-614.054 474.919 -663.254 442.984 -698.395 397.985C-733.537 352.985 -752.596 297.514 -752.532 240.418L-752.532 232.713C-752.596 175.617 -733.537 120.144 -698.396 75.143C-663.254 30.1422 -614.055 -1.7943 -558.645 -15.5707L224.422 -211.329" stroke="#B4D2FF" stroke-width="1.125" stroke-miterlimit="10"/>
<path d="M224.422 701.475L-562.623 504.714C-621.598 490.039 -673.961 456.04 -711.362 408.139C-748.762 360.237 -769.046 301.191 -768.979 240.418L-768.979 232.713C-769.049 171.939 -748.767 112.892 -711.366 64.9892C-673.965 17.0868 -621.6 -16.9111 -562.623 -31.5827L224.422 -228.352" stroke="#B4D2FF" stroke-width="1.5" stroke-miterlimit="10"/>
<path d="M224.422 718.491L-566.626 520.727C-629.176 505.165 -684.714 469.107 -724.382 418.303C-764.05 367.499 -785.564 304.875 -785.492 240.418L-785.492 232.713C-785.564 168.256 -764.051 105.63 -724.383 54.8247C-684.715 4.01917 -629.177 -32.0399 -566.626 -47.6029L224.422 -245.368" stroke="#B4D2FF" stroke-width="1.875" stroke-miterlimit="10"/>
<path d="M224.422 735.514L-570.629 536.747C-636.751 520.291 -695.459 482.171 -737.392 428.464C-779.326 374.757 -802.07 308.557 -801.998 240.419L-801.998 232.713C-802.075 164.571 -779.334 98.3644 -737.4 44.6525C-695.466 -9.0594 -636.755 -47.1838 -570.629 -63.6406L224.422 -262.399" stroke="#B4D2FF" stroke-width="2.25" stroke-miterlimit="10"/>
<path d="M224.422 752.529L-574.633 552.793C-644.331 535.452 -706.216 495.272 -750.418 438.66C-794.62 382.049 -818.592 312.267 -818.512 240.443L-818.512 232.737C-818.598 160.907 -794.626 91.1164 -750.421 34.4993C-706.215 -22.1178 -644.323 -62.2993 -574.616 -79.6365L224.439 -279.373" stroke="#B4D2FF" stroke-width="2.625" stroke-miterlimit="10"/>
<path d="M224.422 769.57L-578.636 568.797C-651.91 550.57 -716.97 508.331 -763.44 448.817C-809.909 389.303 -835.111 315.942 -835.025 240.435L-835.025 232.73C-835.112 157.222 -809.91 83.8594 -763.441 24.3439C-716.971 -35.1715 -651.911 -77.4121 -578.636 -95.6403L224.422 -296.404" stroke="#B4D2FF" stroke-width="3" stroke-miterlimit="10"/>
<path d="M224.422 786.568L-582.639 584.801C-659.486 565.683 -727.719 521.382 -776.454 458.964C-825.189 396.547 -851.62 319.608 -851.531 240.418L-851.531 232.713C-851.622 153.522 -825.192 76.5807 -776.456 14.1617C-727.721 -48.2574 -659.488 -92.5596 -582.639 -111.678L224.422 -313.445" stroke="#B4D2FF" stroke-width="3.375" stroke-miterlimit="10"/>
<path d="M224.422 803.584L-586.65 600.822C-667.071 580.813 -738.477 534.451 -789.478 469.13C-840.479 403.809 -868.138 323.291 -868.045 240.418L-868.045 232.713C-868.141 149.84 -840.483 69.32 -789.481 3.99847C-738.48 -61.3231 -667.073 -107.684 -586.65 -127.69L224.422 -330.46" stroke="#B4D2FF" stroke-width="3.75" stroke-miterlimit="10"/>
<path d="M224.422 -5.51701L-550.606 188.236C-598.854 200.245 -641.692 228.064 -672.289 267.257C-702.885 306.449 -719.478 354.757 -719.421 404.477L-719.421 412.183C-719.479 461.905 -702.887 510.213 -672.291 549.406C-641.694 588.598 -598.855 616.417 -550.606 628.425L224.422 822.22" stroke="#B4D2FF" stroke-width="0.375" stroke-miterlimit="10"/>
<path d="M224.422 839.21L-554.609 644.488C-606.442 631.602 -652.465 601.726 -685.335 559.628C-718.206 517.53 -736.028 465.636 -735.96 412.225L-735.96 404.52C-736.026 351.111 -718.203 299.218 -685.333 257.121C-652.463 215.025 -606.44 185.151 -554.609 172.266L224.422 -22.4565" stroke="#B4D2FF" stroke-width="0.75" stroke-miterlimit="10"/>
<path d="M224.422 856.226L-558.645 660.467C-614.055 646.69 -663.254 614.755 -698.396 569.754C-733.537 524.753 -752.596 469.28 -752.532 412.184L-752.532 404.478C-752.594 347.383 -733.535 291.912 -698.394 246.913C-663.252 201.914 -614.053 169.979 -558.645 156.203L224.422 -39.5551" stroke="#B4D2FF" stroke-width="1.125" stroke-miterlimit="10"/>
<path d="M224.422 873.248L-562.623 676.479C-621.6 661.807 -673.965 627.809 -711.366 579.906C-748.767 532.004 -769.049 472.957 -768.979 412.183L-768.979 404.477C-769.046 343.704 -748.762 284.659 -711.362 236.757C-673.961 188.855 -621.598 154.856 -562.623 140.182L224.422 -56.579" stroke="#B4D2FF" stroke-width="1.5" stroke-miterlimit="10"/>
<path d="M224.422 890.263L-566.626 692.5C-629.177 676.936 -684.715 640.877 -724.383 590.071C-764.051 539.266 -785.564 476.641 -785.492 412.183L-785.492 404.477C-785.564 340.021 -764.05 277.398 -724.382 226.594C-684.714 175.789 -629.176 139.731 -566.626 124.17L224.422 -73.5947" stroke="#B4D2FF" stroke-width="1.875" stroke-miterlimit="10"/>
<path d="M224.422 907.287L-570.629 708.562C-636.752 692.106 -695.461 653.984 -737.395 600.275C-779.328 546.567 -802.071 480.365 -801.998 412.225L-801.998 404.52C-802.07 336.382 -779.326 270.181 -737.392 216.474C-695.459 162.767 -636.751 124.647 -570.629 108.191L224.422 -90.5766" stroke="#B4D2FF" stroke-width="2.25" stroke-miterlimit="10"/>
<path d="M224.422 924.303L-574.633 724.566C-644.332 707.224 -706.217 667.042 -750.419 610.429C-794.62 553.816 -818.592 484.033 -818.512 412.208L-818.512 404.503C-818.597 332.673 -794.625 262.883 -750.419 206.266C-706.214 149.65 -644.322 109.467 -574.616 92.1281L224.439 -107.608" stroke="#B4D2FF" stroke-width="2.625" stroke-miterlimit="10"/>
<path d="M224.422 941.318L-578.636 740.553C-651.911 722.325 -716.971 680.085 -763.441 620.569C-809.91 561.054 -835.112 487.692 -835.025 412.183L-835.025 404.477C-835.111 328.97 -809.909 255.61 -763.44 196.096C-716.97 136.582 -651.91 94.3429 -578.636 76.1164L224.422 -124.648" stroke="#B4D2FF" stroke-width="3" stroke-miterlimit="10"/>
<path d="M224.422 958.341L-582.639 756.574C-659.488 737.456 -727.721 693.153 -776.456 630.734C-825.192 568.315 -851.622 491.375 -851.531 412.184L-851.531 404.478C-851.62 325.288 -825.189 248.349 -776.454 185.932C-727.719 123.515 -659.486 79.2135 -582.639 60.0952L224.422 -141.672" stroke="#B4D2FF" stroke-width="3.375" stroke-miterlimit="10"/>
<path d="M224.422 975.357L-586.65 772.595C-667.073 752.586 -738.479 706.223 -789.481 640.9C-840.482 575.577 -868.14 495.058 -868.045 412.183L-868.045 404.478C-868.138 321.605 -840.479 241.087 -789.478 175.766C-738.477 110.445 -667.071 64.0831 -586.65 44.0744L224.422 -158.687" stroke="#B4D2FF" stroke-width="3.75" stroke-miterlimit="10"/>
<path d="M224.422 165.613L-550.606 359.366C-598.854 371.376 -641.692 399.195 -672.289 438.387C-702.885 477.579 -719.478 525.887 -719.421 575.608L-719.421 583.313C-719.478 633.034 -702.885 681.342 -672.289 720.534C-641.692 759.726 -598.854 787.545 -550.606 799.555L224.422 993.317" stroke="#B4D2FF" stroke-width="0.375" stroke-miterlimit="10"/>
<path d="M224.422 1010.33L-554.609 815.609C-606.442 802.723 -652.465 772.849 -685.335 730.75C-718.206 688.652 -736.028 636.757 -735.96 583.347L-735.96 575.642C-736.026 522.232 -718.203 470.34 -685.333 428.244C-652.463 386.147 -606.44 356.273 -554.609 343.387L224.422 148.665" stroke="#B4D2FF" stroke-width="0.75" stroke-miterlimit="10"/>
<path d="M224.422 1027.35L-558.645 831.596C-614.055 817.82 -663.254 785.884 -698.396 740.883C-733.537 695.883 -752.596 640.409 -752.532 583.313L-752.532 575.608C-752.596 518.513 -733.537 463.04 -698.395 418.041C-663.254 373.042 -614.054 341.108 -558.645 327.333L224.422 131.574" stroke="#B4D2FF" stroke-width="1.125" stroke-miterlimit="10"/>
<path d="M224.422 1044.37L-562.623 847.608C-621.6 832.937 -673.965 798.939 -711.366 751.037C-748.767 703.134 -769.049 644.087 -768.979 583.313L-768.979 575.608C-769.046 514.835 -748.762 455.789 -711.362 407.887C-673.961 359.985 -621.598 325.986 -562.623 311.312L224.422 114.55" stroke="#B4D2FF" stroke-width="1.5" stroke-miterlimit="10"/>
<path d="M224.422 1061.39L-566.626 863.629C-629.177 848.066 -684.715 812.006 -724.383 761.201C-764.051 710.395 -785.564 647.77 -785.492 583.313L-785.492 575.608C-785.565 511.151 -764.052 448.526 -724.383 397.721C-684.715 346.917 -629.177 310.86 -566.626 295.3L224.422 97.5357" stroke="#B4D2FF" stroke-width="1.875" stroke-miterlimit="10"/>
<path d="M224.422 1078.41L-570.629 879.65C-636.752 863.194 -695.461 825.072 -737.395 771.363C-779.328 717.655 -802.071 651.453 -801.998 583.313L-801.998 575.608C-802.07 507.47 -779.326 441.269 -737.392 387.563C-695.459 333.856 -636.751 295.735 -570.629 279.279L224.422 80.5123" stroke="#B4D2FF" stroke-width="2.25" stroke-miterlimit="10"/>
<path d="M224.422 1095.43L-574.633 895.696C-644.332 878.357 -706.218 838.177 -750.42 781.565C-794.622 724.953 -818.593 655.17 -818.512 583.346L-818.512 575.641C-818.6 503.809 -794.629 434.017 -750.424 377.398C-706.218 320.78 -644.324 280.596 -574.616 263.259L224.439 63.522" stroke="#B4D2FF" stroke-width="2.625" stroke-miterlimit="10"/>
<path d="M224.422 1112.45L-578.636 911.683C-651.91 893.454 -716.97 851.213 -763.439 791.698C-809.908 732.183 -835.11 658.821 -835.025 583.313L-835.025 575.608C-835.111 500.101 -809.909 426.74 -763.44 367.225C-716.97 307.711 -651.91 265.473 -578.636 247.246L224.422 46.4732" stroke="#B4D2FF" stroke-width="3" stroke-miterlimit="10"/>
<path d="M224.422 1129.47L-582.639 927.704C-659.487 908.584 -727.72 864.282 -776.455 801.863C-825.19 739.444 -851.62 662.504 -851.531 583.313L-851.531 575.608C-851.621 496.418 -825.191 419.478 -776.455 357.061C-727.72 294.643 -659.487 250.343 -582.639 231.226L224.422 29.4586" stroke="#B4D2FF" stroke-width="3.375" stroke-miterlimit="10"/>
<path d="M224.422 1146.48L-586.65 943.708C-667.073 923.702 -738.48 877.34 -789.481 812.019C-840.483 746.697 -868.141 666.178 -868.045 583.305L-868.045 575.6C-868.138 492.727 -840.479 412.209 -789.478 346.888C-738.477 281.567 -667.071 235.205 -586.65 215.196L224.422 12.4093" stroke="#B4D2FF" stroke-width="3.75" stroke-miterlimit="10"/>
<path d="M224.422 12.4092L999.441 -181.343C1047.69 -193.352 1090.53 -221.17 1121.13 -260.363C1151.72 -299.555 1168.31 -347.864 1168.26 -397.585L1168.26 -405.29C1168.32 -455.012 1151.72 -503.322 1121.13 -542.515C1090.53 -581.707 1047.69 -609.525 999.441 -621.532L224.422 -815.294" stroke="#B4D2FF" stroke-width="0.375" stroke-miterlimit="10"/>
<path d="M224.422 -832.292L1003.45 -637.57C1055.29 -624.684 1101.31 -594.808 1134.18 -552.71C1167.05 -510.612 1184.87 -458.718 1184.8 -405.307L1184.8 -397.602C1184.87 -344.193 1167.05 -292.3 1134.18 -250.203C1101.31 -208.107 1055.28 -178.233 1003.45 -165.348L224.422 29.3743" stroke="#B4D2FF" stroke-width="0.75" stroke-miterlimit="10"/>
<path d="M224.423 -849.308L1007.49 -653.549C1062.9 -639.772 1112.1 -607.835 1147.24 -562.835C1182.38 -517.834 1201.44 -462.362 1201.38 -405.266L1201.38 -397.56C1201.44 -340.465 1182.38 -284.995 1147.24 -239.996C1112.1 -194.997 1062.9 -163.062 1007.49 -149.286L224.423 46.4725" stroke="#B4D2FF" stroke-width="1.125" stroke-miterlimit="10"/>
<path d="M224.422 -866.331L1011.46 -669.536C1070.44 -654.866 1122.8 -620.867 1160.2 -572.965C1197.6 -525.062 1217.89 -466.014 1217.81 -405.24L1217.81 -397.535C1217.88 -336.762 1197.6 -277.715 1160.2 -229.813C1122.8 -181.911 1070.43 -147.912 1011.46 -133.239L224.422 63.5222" stroke="#B4D2FF" stroke-width="1.5" stroke-miterlimit="10"/>
<path d="M224.422 -883.346L1015.46 -685.582C1078.01 -670.021 1133.55 -633.962 1173.22 -583.156C1212.89 -532.35 1234.4 -469.724 1234.33 -405.266L1234.33 -397.56C1234.4 -333.103 1212.89 -270.477 1173.22 -219.673C1133.55 -168.868 1078.01 -132.811 1015.46 -117.252L224.422 80.5124" stroke="#B4D2FF" stroke-width="1.875" stroke-miterlimit="10"/>
<path d="M224.422 -900.361L1019.47 -701.603C1085.59 -685.148 1144.3 -647.027 1186.24 -593.318C1228.17 -539.61 1250.92 -473.406 1250.84 -405.266L1250.84 -397.56C1250.91 -329.423 1228.16 -263.226 1186.23 -209.522C1144.29 -155.819 1085.59 -117.702 1019.47 -101.248L224.422 97.5188" stroke="#B4D2FF" stroke-width="2.25" stroke-miterlimit="10"/>
<path d="M224.422 -917.385L1023.47 -717.649C1093.17 -700.3 1155.05 -660.112 1199.24 -603.494C1243.44 -546.876 1267.4 -477.09 1267.31 -405.266L1267.31 -397.56C1267.39 -325.736 1243.42 -255.953 1199.21 -199.341C1155.01 -142.73 1093.13 -102.55 1023.43 -85.2105L224.38 114.526" stroke="#B4D2FF" stroke-width="2.625" stroke-miterlimit="10"/>
<path d="M224.422 -934.4L1027.45 -733.636C1100.73 -715.406 1165.79 -673.164 1212.25 -613.649C1258.72 -554.133 1283.92 -480.772 1283.84 -405.265L1283.84 -397.56C1283.92 -322.053 1258.72 -248.693 1212.25 -189.179C1165.79 -129.665 1100.73 -87.4265 1027.45 -69.1984L224.397 131.575" stroke="#B4D2FF" stroke-width="3" stroke-miterlimit="10"/>
<path d="M224.422 -951.424L1031.48 -749.657C1108.33 -730.538 1176.57 -686.236 1225.3 -623.817C1274.04 -561.398 1300.47 -484.457 1300.37 -405.266L1300.37 -397.56C1300.46 -318.37 1274.03 -241.432 1225.3 -179.014C1176.56 -116.597 1108.33 -72.2967 1031.48 -53.1784L224.422 148.631" stroke="#B4D2FF" stroke-width="3.375" stroke-miterlimit="10"/>
<path d="M224.422 -968.439L1035.49 -765.644C1115.91 -745.638 1187.32 -699.277 1238.32 -633.955C1289.32 -568.634 1316.98 -488.115 1316.89 -405.24L1316.89 -397.535C1316.98 -314.662 1289.32 -234.144 1238.32 -168.823C1187.31 -103.502 1115.91 -57.1407 1035.49 -37.1322L224.422 165.638" stroke="#B4D2FF" stroke-width="3.75" stroke-miterlimit="10"/>
</svg>
